<svg width="349" height="68" viewBox="0 0 349 68" fill="none" xmlns="http://www.w3.org/2000/svg">
<path d="M182.432 2.83719L182.65 0.849058V0.849057L182.432 2.83719ZM348.252 22.4017C349.113 21.7103 349.251 20.4515 348.56 19.5901L337.291 5.5534C336.6 4.69204 335.341 4.55431 334.48 5.24578C333.618 5.93725 333.481 7.19607 334.172 8.05743L344.188 20.5345L331.711 30.5506C330.85 31.2421 330.712 32.5009 331.404 33.3623C332.095 34.2236 333.354 34.3614 334.215 33.6699L348.252 22.4017ZM132.486 10.1923L133.268 12.0333L132.486 10.1923ZM182.215 4.82533L346.782 22.8302L347.218 18.854L182.65 0.849058L182.215 4.82533ZM1.7814 67.841L133.268 12.0333L131.705 8.35125L0.218596 64.159L1.7814 67.841ZM182.65 0.849057C165.306 -1.04848 147.765 1.53456 131.705 8.35125L133.268 12.0333C148.698 5.48395 165.551 3.0022 182.215 4.82533L182.65 0.849057Z" fill="#3E342A"/>
</svg>
