<svg width="249" height="83" viewBox="0 0 249 83" fill="none" xmlns="http://www.w3.org/2000/svg">
<path d="M26.2156 82.9889C22.8843 82.9457 19.5659 82.5659 16.3108 81.8553C13.6848 81.3243 11.145 80.431 8.76422 79.2009C8.54488 79.0793 8.29704 79.0186 8.04639 79.0251C7.79573 79.0317 7.5514 79.1053 7.33872 79.2383C7.12604 79.3713 6.95276 79.5588 6.83684 79.7815C6.72093 80.0041 6.6666 80.2537 6.67949 80.5045V80.599C6.68839 80.7897 6.65869 80.9803 6.59217 81.1593C6.52565 81.3383 6.42368 81.502 6.2924 81.6405C6.16111 81.779 6.00322 81.8895 5.8282 81.9654C5.65318 82.0413 5.46465 82.081 5.27394 82.082H1.40634C1.21772 82.0821 1.03101 82.0442 0.857336 81.9706C0.683658 81.8969 0.526564 81.789 0.395412 81.6532C0.264259 81.5175 0.161731 81.3567 0.0939349 81.1804C0.026139 81.0042 -0.00553776 80.8161 0.000791651 80.6273L0.708281 58.5042C0.718114 58.14 0.869533 57.794 1.1303 57.5399C1.39106 57.2859 1.74057 57.1438 2.10439 57.1439H4.86831C5.22466 57.1453 5.56734 57.2813 5.82791 57.5247C6.08847 57.7682 6.24773 58.1011 6.27386 58.4569C6.47839 61.9534 7.51326 65.3506 9.29248 68.3661C11.0442 71.2453 13.603 73.5449 16.6504 74.9784C19.9068 76.4583 23.4513 77.194 27.0269 77.1322C29.7305 77.1595 32.4111 76.6323 34.9036 75.583C37.2131 74.6145 39.2387 73.0737 40.7899 71.1055C42.3399 69.1321 43.1954 66.7013 43.2236 64.1908C43.3859 62.682 43.2413 61.1559 42.7987 59.7045C42.3561 58.2531 41.6247 56.9065 40.6484 55.7459C38.5585 53.3876 36.043 51.4455 33.2339 50.0214C30.2153 48.4344 27.0709 46.923 23.8007 45.4872C20.0452 43.7638 16.3973 41.8143 12.8771 39.6494C9.66929 37.7171 6.94074 35.0817 4.89661 31.9413C2.86443 28.544 1.96571 24.5868 2.33079 20.6436C2.52107 18.353 3.03561 16.1011 3.85896 13.9556C4.81886 11.4635 6.23984 9.17526 8.0473 7.21097C10.1703 4.91957 12.782 3.13722 15.6882 1.99664C19.4449 0.570251 23.4448 -0.103732 27.4608 0.0129246C30.7242 0.0531844 33.9719 0.471605 37.1392 1.25983C39.7097 1.85609 42.1705 2.85386 44.4311 4.21651C44.6467 4.34134 44.8917 4.40615 45.1407 4.40421C45.3898 4.40227 45.6338 4.33366 45.8474 4.2055C46.061 4.07733 46.2366 3.89427 46.3557 3.6753C46.4749 3.45632 46.5335 3.20941 46.5253 2.96016V2.3556C46.5277 1.98558 46.6756 1.63141 46.9369 1.36976C47.1982 1.10811 47.5519 0.960026 47.9214 0.957551H51.789C51.9801 0.957274 52.1692 0.996026 52.3449 1.07144C52.5205 1.14685 52.679 1.25734 52.8105 1.39614C52.9421 1.53495 53.044 1.69917 53.11 1.87875C53.176 2.05834 53.2048 2.24952 53.1945 2.44061L51.9871 25.0172C51.9677 25.3772 51.8112 25.7161 51.5496 25.9639C51.2881 26.2117 50.9416 26.3496 50.5815 26.3491H48.0251C47.6682 26.3473 47.3254 26.2097 47.0661 25.9641C46.8068 25.7185 46.6506 25.3834 46.629 25.0266C46.4208 21.8653 45.6442 18.7676 44.3368 15.8826C42.9838 12.8808 40.8293 10.3115 38.1109 8.45788C35.0384 6.50835 31.4312 5.57639 27.8004 5.79404C24.0383 5.62956 20.3548 6.90636 17.4993 9.36472C16.2455 10.4296 15.2259 11.7433 14.505 13.2229C13.784 14.7025 13.3775 16.3158 13.311 17.9608C13.108 20.4693 13.7743 22.9713 15.1977 25.0455C16.7705 27.2101 18.7749 29.0243 21.084 30.3732C23.8998 32.0699 26.8313 33.5661 29.8568 34.8507C32.7119 36.1858 35.6519 37.5901 38.6768 39.0638C41.6074 40.4824 44.3778 42.2115 46.9403 44.2214C49.3763 46.1212 51.3825 48.5166 52.8266 51.2494C54.3165 54.3114 54.9675 57.7147 54.7133 61.1113C54.5399 65.1897 53.1828 69.129 50.8079 72.4468C48.3121 75.8692 44.9386 78.5522 41.0446 80.2117C36.3508 82.1688 31.2984 83.115 26.2156 82.9889Z" fill="#C12026"/>
<path d="M79.9848 23.2507C83.0558 23.201 86.1028 23.7996 88.9274 25.0077C91.373 26.0211 93.5171 27.6476 95.1533 29.7309C96.6517 31.6995 97.4487 34.1138 97.4173 36.5889C97.5005 38.2301 96.9766 39.8444 95.9457 41.1231C95.4328 41.6964 94.8045 42.1544 94.1021 42.467C93.3998 42.7796 92.6392 42.9397 91.8706 42.9367C89.833 43.0123 88.3992 42.3826 87.569 41.0475C86.8441 40.0318 86.4133 38.8354 86.3239 37.5902C86.332 36.8448 86.427 36.103 86.6069 35.3797C86.8231 34.5898 87.2059 33.8554 87.7294 33.226C87.5656 32.438 87.226 31.6973 86.7359 31.0593C86.2459 30.4213 85.618 29.9026 84.8995 29.5419C83.3494 28.7301 81.6206 28.3209 79.8716 28.3517C77.1721 28.2673 74.5349 29.1744 72.4571 30.9022C70.3798 32.6973 68.7624 34.9647 67.7405 37.5146C66.5906 40.2989 65.7736 43.2097 65.3067 46.1863C64.8348 49.0551 64.5512 51.9519 64.4577 54.8579C64.3237 58.8728 64.856 62.8821 66.0331 66.7224C66.7992 69.2976 68.3655 71.5611 70.5044 73.1837C72.3502 74.48 74.5336 75.2088 76.7869 75.2807C78.7452 75.2523 80.6821 74.8682 82.5034 74.1472C84.7414 73.2327 86.7652 71.8623 88.4463 70.1231C90.4084 68.2338 93.5497 64.3797 94.0308 60.3556L98.2946 64.1341C96.6981 68.0918 94.4182 71.737 91.5593 74.9029C89.2957 77.3624 86.5372 79.3134 83.4656 80.6273C80.6654 81.7852 77.6657 82.3821 74.6361 82.3843C67.9952 82.3843 62.6749 80.3628 58.6752 76.3198C54.6755 72.2768 52.6851 66.0486 52.704 57.6351C52.7385 53.7626 53.2905 49.9121 54.3454 46.1863C55.4253 42.2134 57.1049 38.429 59.3261 34.9641C61.4906 31.5494 64.3916 28.6637 67.816 26.5191C71.4776 24.2889 75.7001 23.1548 79.9848 23.2507Z" fill="#C12026"/>
<path d="M122.095 23.2507C125.984 23.2009 129.816 24.1993 133.188 26.1412C136.582 28.1467 139.316 31.1017 141.055 34.6429C143.085 38.8621 144.075 43.5073 143.942 48.1888C143.991 53.9879 142.854 59.7358 140.602 65.0787C138.57 70.0395 135.271 74.3785 131.037 77.6611C126.681 80.8924 121.363 82.5566 115.944 82.3843C110.963 82.3843 106.832 81.2507 103.549 78.9836C100.252 76.6992 97.7104 73.4829 96.2476 69.7452C94.6253 65.6528 93.8177 61.2822 93.8705 56.8794C93.8027 51.0911 94.9601 45.3541 97.2664 40.0461C99.3495 35.1505 102.713 30.9082 107.001 27.766C111.415 24.6714 116.709 23.0877 122.095 23.2507ZM120.397 28.5784C118.948 28.5235 117.504 28.7839 116.166 29.3416C114.827 29.8994 113.625 30.7412 112.643 31.809C110.293 34.3848 108.57 37.4688 107.605 40.8207C106.364 44.8996 105.728 49.1391 105.719 53.4032C105.73 55.9994 105.9 58.5925 106.228 61.168C106.537 63.7979 107.145 66.384 108.039 68.8761C108.786 71.0603 110.003 73.0533 111.605 74.7139C113.141 76.2372 115.216 77.0925 117.378 77.0944C119.838 77.1415 122.227 76.2655 124.076 74.6383C126.025 72.8745 127.569 70.7089 128.603 68.2905C129.792 65.624 130.666 62.828 131.207 59.9589C131.742 57.2302 132.057 54.463 132.15 51.6839C132.222 49.1097 132.109 46.5337 131.811 43.9758C131.53 41.4201 130.941 38.908 130.056 36.4943C129.304 34.3329 128.064 32.374 126.434 30.7699C124.789 29.2698 122.619 28.482 120.397 28.5784Z" fill="#C12026"/>
<path d="M161.035 82.422C158.523 82.6167 156.019 81.9531 153.932 80.5394C151.846 79.1257 150.299 77.0455 149.545 74.6383C148.652 72.1093 148.211 69.4424 148.243 66.7601C148.251 62.8719 148.535 58.9892 149.092 55.1412C149.658 51.1738 150.224 47.4142 150.79 43.8624C151.298 40.9412 151.582 37.9853 151.639 35.0207C151.679 33.9025 151.506 32.7869 151.13 31.7334C150.96 31.3317 150.666 30.9953 150.29 30.7742C149.915 30.553 149.478 30.4587 149.045 30.5054C147.988 30.5054 146.819 31.28 145.536 32.8292C143.517 35.0438 142.249 37.841 141.914 40.8207L137.838 39.8005C138.14 38.1063 138.634 36.452 139.31 34.8696C140.103 32.9489 141.109 31.1237 142.31 29.4285C143.526 27.681 145.062 26.1808 146.838 25.0077C148.71 23.808 150.898 23.1961 153.12 23.2507C156.516 23.2507 158.969 24.252 160.478 26.2546C161.987 28.2572 162.742 31.11 162.742 34.8129C162.715 37.4274 162.545 40.0385 162.233 42.6344C161.893 45.6572 161.497 48.7745 161.044 51.9862C160.591 55.1979 160.195 58.2963 159.855 61.2813C159.542 63.8581 159.372 66.4504 159.346 69.0461C159.354 70.0192 159.468 70.9884 159.686 71.9367C159.872 72.8878 160.346 73.7585 161.044 74.4305C161.828 75.1025 162.844 75.4415 163.874 75.3751C165.761 75.3751 167.61 74.4494 169.421 72.5979C171.504 70.35 173.24 67.8028 174.571 65.0409C176.291 61.6362 177.766 58.1133 178.986 54.4989C180.296 50.6428 181.323 46.6965 182.061 42.6911C182.801 38.8999 183.189 35.0483 183.221 31.1855C183.221 30.1275 183.203 28.994 183.165 27.7849C183.137 26.6844 183.042 25.5867 182.882 24.4976H194.088C194.218 25.1898 194.293 25.8908 194.315 26.5946V28.2383C194.315 29.6741 194.239 31.3556 194.088 33.2826C193.938 35.2096 193.711 37.5712 193.409 40.3673C193.107 43.1634 192.692 46.564 192.164 50.5692C191.711 54.1966 191.353 57.1438 191.089 59.4109C190.825 61.678 190.598 63.5106 190.41 64.9087C190.221 66.3067 190.108 67.4403 190.07 68.3093C190.032 69.1784 190.013 69.9907 190.013 70.7464C189.972 71.8145 190.165 72.8786 190.579 73.8637C190.737 74.2296 191.002 74.5391 191.338 74.7516C191.675 74.964 192.068 75.0694 192.466 75.0539C193.598 75.0539 194.856 74.2982 196.239 72.7868C197.598 71.2754 198.192 68.6872 199.258 64.9087L203.437 66.3634C203.135 67.8087 202.89 68.98 202.39 70.8976C201.832 72.8224 200.938 74.6327 199.748 76.2442C198.573 77.9875 197.075 79.4884 195.334 80.665C193.522 81.8588 191.389 82.4716 189.221 82.422C187.986 82.4951 186.75 82.2999 185.597 81.8499C184.444 81.3999 183.402 80.7057 182.542 79.8149C180.957 78.0768 180.165 75.5578 180.165 72.2579C180.171 70.2259 180.341 68.1977 180.674 66.1934C181.014 64.1152 181.373 61.9425 181.75 59.6754H181.523C179.741 64.5772 177.446 69.2762 174.675 73.6937C172.449 77.0188 170.223 79.3048 167.996 80.5517C165.877 81.7701 163.478 82.4147 161.035 82.422Z" fill="#C12026"/>
<path d="M208.087 81.175C208.012 80.2682 207.955 79.5692 207.918 79.078C207.88 78.5868 207.861 78.0515 207.861 77.4721C207.861 76.0363 207.918 74.3549 208.031 72.4278C208.144 70.5008 208.351 68.1392 208.653 65.3431C208.955 62.547 209.332 59.1464 209.785 55.1412C210.238 50.9092 210.615 47.5653 210.917 45.1092C211.219 42.6532 211.464 40.7073 211.653 39.2714C211.814 38.1824 211.908 37.0846 211.936 35.9842C211.952 34.7135 211.819 33.4453 211.54 32.2056C211.448 31.703 211.169 31.254 210.759 30.9491C210.349 30.6441 209.84 30.5058 209.332 30.562C208.276 30.562 207.069 31.3366 205.71 32.8858C204.352 34.435 203.094 37.0988 201.937 40.8773L197.749 39.8571C198.126 38.1753 198.637 36.5264 199.277 34.9262C200.029 33.0083 200.997 31.1828 202.163 29.4851C203.335 27.7205 204.838 26.2 206.587 25.0076C208.4 23.8138 210.532 23.201 212.7 23.2506C215.719 23.2506 217.945 24.2708 219.379 26.3112C220.813 28.3516 221.442 31.3366 221.265 35.2662C221.248 36.9758 221.097 38.6814 220.813 40.3672C220.511 42.2565 220.171 44.2969 219.794 46.4884H220.02C222.209 40.1909 224.454 35.3922 226.756 32.0923C229.057 28.7924 231.378 26.4875 233.717 25.1776C235.786 23.9842 238.122 23.3343 240.509 23.2884C242.704 23.1859 244.866 23.8541 246.622 25.1776C247.994 26.3585 248.842 28.0364 248.98 29.8428C249.118 31.6493 248.534 33.4367 247.358 34.8128C246.821 35.437 246.15 35.9313 245.395 36.2585C244.64 36.5857 243.821 36.7374 243 36.7021C241.593 36.7383 240.223 36.254 239.151 35.3418C238.611 34.8564 238.181 34.2618 237.888 33.5974C237.596 32.933 237.447 32.2139 237.453 31.4877C235.566 31.1854 233.736 31.9034 231.963 33.6415C229.901 35.7996 228.217 38.2906 226.982 41.0096C225.332 44.449 223.95 48.0115 222.85 51.6649C221.641 55.6026 220.696 59.6168 220.02 63.6806C219.367 67.4624 219.027 71.2916 219.001 75.1294C219.001 76.263 219.02 77.3021 219.058 78.2467C219.096 79.1913 219.152 80.1549 219.228 81.1373L208.087 81.175Z" fill="#C12026"/>
<path d="M201.975 40.8207C194.428 63.9168 205.201 50.3614 203.437 66.3256C203.324 67.4024 199.032 65.9288 199.258 64.8709C202.673 48.6044 192.947 56.1614 197.786 39.7627" fill="#C12026"/>
</svg>
