<svg width="26" height="25" viewBox="0 0 26 25" fill="none" xmlns="http://www.w3.org/2000/svg">
<path fill-rule="evenodd" clip-rule="evenodd" d="M13 25C19.9036 25 25.5 19.4036 25.5 12.5C25.5 5.59644 19.9036 0 13 0C6.09644 0 0.5 5.59644 0.5 12.5C0.5 19.4036 6.09644 25 13 25ZM10 5C10 4.44772 10.4477 4 11 4C11.5523 4 12 4.44772 12 5H12.25V11.2336C12.25 11.584 12.3971 11.9183 12.6553 12.155L15.8447 15.0786L15.6757 15.2628C15.875 15.4456 16 15.7082 16 16V17C16 17.5523 15.5523 18 15 18C14.4477 18 14 17.5523 14 17V16.779L10.966 13.9979C10.1912 13.2876 9.75 12.2847 9.75 11.2336V5H10Z" fill="#71665A"/>
</svg>
