<svg width="51" height="51" viewBox="0 0 51 51" fill="none" xmlns="http://www.w3.org/2000/svg">
<path fill-rule="evenodd" clip-rule="evenodd" d="M15.5 0.5C7.21573 0.5 0.5 7.21573 0.5 15.5V35.5C0.5 43.7843 7.21573 50.5 15.5 50.5H35.5C43.7843 50.5 50.5 43.7843 50.5 35.5V15.5C50.5 7.21573 43.7843 0.5 35.5 0.5H15.5ZM43.5 11C43.5 12.3807 42.3807 13.5 41 13.5C39.6193 13.5 38.5 12.3807 38.5 11C38.5 9.61929 39.6193 8.5 41 8.5C42.3807 8.5 43.5 9.61929 43.5 11ZM26 15.25C20.0629 15.25 15.25 20.0629 15.25 26C15.25 31.9371 20.0629 36.75 26 36.75C31.9371 36.75 36.75 31.9371 36.75 26C36.75 20.0629 31.9371 15.25 26 15.25ZM11.75 26C11.75 18.1299 18.1299 11.75 26 11.75C33.8701 11.75 40.25 18.1299 40.25 26C40.25 33.8701 33.8701 40.25 26 40.25C18.1299 40.25 11.75 33.8701 11.75 26Z" fill="#3E342A"/>
</svg>
