<svg width="51" height="51" viewBox="0 0 51 51" fill="none" xmlns="http://www.w3.org/2000/svg">
<path fill-rule="evenodd" clip-rule="evenodd" d="M10.5833 0.5C5.01446 0.5 0.5 5.01446 0.5 10.5833V40.4167C0.5 45.9855 5.01446 50.5 10.5833 50.5H40.4167C45.9855 50.5 50.5 45.9855 50.5 40.4167V10.5833C50.5 5.01446 45.9855 0.5 40.4167 0.5H10.5833ZM9.42417 18.2917V43.5H15.6758V18.2917H9.42417ZM9.42417 8.20833V14.46H15.6758V8.20833H9.42417ZM21.536 18.2917V43.5H27.7876V25.2489C28.174 24.8079 28.5858 24.4214 29.0229 24.0896C29.9304 23.3838 31.0983 23.0308 32.5268 23.0308C34.2914 23.0308 35.5602 23.5938 36.3333 24.7198C37.1231 25.8458 37.5181 27.5851 37.5181 29.9379V43.5H43.7697V29.4338C43.7697 26.0222 42.9883 23.2493 41.4254 21.115C39.8624 18.9639 37.4676 17.8883 34.241 17.8883C32.4764 17.8883 30.9303 18.216 29.6026 18.8715C28.8333 19.2513 28.126 19.6565 27.4808 20.0871L27.3843 18.2917H21.536Z" fill="#3E342A"/>
</svg>
