<svg width="50" height="50" viewBox="0 0 50 50" fill="none" xmlns="http://www.w3.org/2000/svg">
<path fill-rule="evenodd" clip-rule="evenodd" d="M10.0833 0C4.51446 0 0 4.51446 0 10.0833V39.9167C0 45.4855 4.51446 50 10.0833 50H39.9167C45.4855 50 50 45.4855 50 39.9167V10.0833C50 4.51446 45.4855 0 39.9167 0H10.0833ZM8.92417 18.7917V44H15.1758V18.7917H8.92417ZM8.92417 8.70833V14.96H15.1758V8.70833H8.92417ZM21.036 18.7917V44H27.2876V25.7489C27.674 25.3079 28.0858 24.9214 28.5229 24.5896C29.4304 23.8838 30.5983 23.5308 32.0268 23.5308C33.7914 23.5308 35.0602 24.0938 35.8333 25.2198C36.6231 26.3458 37.0181 28.0851 37.0181 30.4379V44H43.2697V29.9338C43.2697 26.5222 42.4883 23.7493 40.9254 21.615C39.3624 19.4639 36.9676 18.3883 33.741 18.3883C31.9764 18.3883 30.4303 18.716 29.1026 19.3715C28.3333 19.7513 27.626 20.1565 26.9808 20.5871L26.8843 18.7917H21.036Z" fill="#BEB9AF"/>
</svg>
