<svg width="51" height="43" viewBox="0 0 51 43" fill="none" xmlns="http://www.w3.org/2000/svg">
<path fill-rule="evenodd" clip-rule="evenodd" d="M0.5 8.81026C0.5 4.20789 4.23096 0.476929 8.83333 0.476929H42.1667C46.769 0.476929 50.5 4.20789 50.5 8.81026V8.83339V8.85652V34.1436V34.1667V34.1898C50.5 38.7922 46.769 42.5232 42.1667 42.5232H8.83333C4.23096 42.5232 0.5 38.7922 0.5 34.1898V34.1667V34.1436V8.85652V8.83339V8.81026ZM7.27142 4.99249C7.75377 4.79732 8.281 4.68985 8.83333 4.68985H42.1667C42.719 4.68985 43.2462 4.79732 43.7286 4.99249L25.5 18.8809L7.27142 4.99249ZM4.70669 8.27666C4.68031 8.46616 4.66667 8.65975 4.66667 8.85652V8.83339C4.66667 6.5322 6.53215 4.66672 8.83333 4.66672H42.1667C44.4679 4.66672 46.3333 6.5322 46.3333 8.83339V8.85652C46.3333 8.65975 46.3197 8.46616 46.2933 8.27666L27.2676 22.7724C26.2235 23.568 24.7765 23.568 23.7324 22.7724L4.70669 8.27666Z" fill="#3E342A"/>
</svg>
