<svg width="50" height="50" viewBox="0 0 50 50" fill="none" xmlns="http://www.w3.org/2000/svg">
<path d="M8 8.2V41.8C8 42.9139 8.4346 43.9822 9.20818 44.7698C9.98177 45.5575 11.031 46 12.125 46H36.875C37.969 46 39.0182 45.5575 39.7918 44.7698C40.5654 43.9822 41 42.9139 41 41.8V17.3182C40.9999 16.7587 40.8901 16.2048 40.6768 15.6891C40.4636 15.1734 40.1514 14.7063 39.7584 14.3152L30.6009 5.197C29.8302 4.42978 28.7953 4.00014 27.7175 4H12.125C11.031 4 9.98177 4.4425 9.20818 5.23015C8.4346 6.0178 8 7.08609 8 8.2V8.2Z" stroke="#BEB9AF" stroke-width="4.16667" stroke-linecap="round" stroke-linejoin="round"/>
<path d="M29 4V12.6667C29 13.8159 29.4214 14.9181 30.1716 15.7308C30.9217 16.5435 31.9391 17 33 17H41" stroke="#BEB9AF" stroke-width="4.16667" stroke-linejoin="round"/>
</svg>
